<svg xmlns="http://www.w3.org/2000/svg" viewBox="0 0 2282.44 390.34"><defs><style>.cls-1{fill:#6e389a;}.cls-2{font-size:330px;fill:#f60;font-family:ArialMT, Arial;}.cls-3{fill:#bd0048;}.cls-4{fill:#e0f30e;}.cls-5{fill:#04a47a;}.cls-6{fill:#24c2cb;}.cls-10,.cls-11,.cls-7,.cls-8,.cls-9{fill:none;stroke-miterlimit:10;stroke-width:4px;}.cls-7{stroke:#f60;}.cls-8{stroke:#bd0048;}.cls-9{stroke:#e0f30e;}.cls-10{stroke:#04a47a;}.cls-11{stroke:#24c2cb;}</style></defs><title>Asset 1</title><g id="Layer_2" data-name="Layer 2"><g id="roku.flashback"><path class="cls-1" d="M392,98.71h37.75c6.33,0,12.68.27,19-.09,4.14-.23,5.06,1.43,5,5.17-.12,20-.05,40-.05,60v6.36l1.19.62c1.36-1.23,2.78-2.41,4.08-3.71,21.46-21.44,42.84-43,64.45-64.22a12.91,12.91,0,0,1,8.15-3.48c39.33-.23,78.65-.09,118-.26,4.81,0,6.27,1.45,6.24,6.25q-.28,45,0,90a169.05,169.05,0,0,0,1.5,22.38c2.46,17.61,12.65,24.47,30,20.58,10.59-2.38,18-9,23.36-18.1,1-1.71,1-4.14,1.05-6.23.06-36.33.13-72.66-.07-109,0-4.73,1.45-5.91,5.93-5.85,17.32.21,34.66.12,52,0,3.17,0,4.78.57,4.77,4.37q-.16,88.49-.09,177c0,.65-.12,1.3-.23,2.35-6.6.75-12.7,1.63-18.34-4-7.07-7-15-13.14-22.68-19.75-4.22,3.62-8,7.36-12.29,10.47C692.25,290.23,661.69,292.74,630,279c-20.75-9-31.73-26.15-35.27-48.15a102.91,102.91,0,0,1-1-15.9c-.09-33.83-.05-67.66-.05-101.49v-4.87l-79.57,79.83L608.82,283c-3,.17-4.46.31-5.89.32-22.66,0-45.32-.07-68,.08a10.6,10.6,0,0,1-8.24-3.54q-34.17-34-68.55-67.87c-1-1-2.18-1.88-4.06-3.48-.16,3-.37,5.13-.37,7.23,0,20.5-.15,41,.08,61.49.05,4.77-1.29,6.28-6.16,6.2-16.83-.28-33.66-.1-50.49-.12-1.63,0-3.25-.15-5.18-.25Z"/><path class="cls-1" d="M209.32,283.35H193.66c-16.83,0-33.65-.1-50.48.08-3.42,0-5.44-1.19-7.36-3.88-16.66-23.3-33.52-46.45-50.08-69.81-2.8-3.93-5.67-5.66-10.62-5.52-12.89.37-12.9.11-12.9,12.85v65.84H0V47.9c1.5-.08,3.09-.24,4.67-.24,30,0,60-.89,90,.22,33.83,1.25,62.23,14.52,80.24,44.46,17.37,28.88,10.66,63.11-16,87-4.78,4.28-10.12,8-15.57,12.21ZM62.25,85.75c0,26.62,0,52.05.13,77.47,0,1,1.95,2.75,3,2.75,8.14,0,16.44.56,24.38-.81,18.4-3.18,31.88-19.78,32-38,.1-19.92-12.38-36.43-31.41-39.89C81.44,85.63,72.17,86.2,62.25,85.75Z"/><path class="cls-1" d="M185.19,191.18c0-53.79,42.84-96.08,97.26-96,53.48.09,96.56,44.25,95.9,97.53-.63,52.11-43.87,94.56-97.46,94.49A95.73,95.73,0,0,1,185.19,191.18Zm64.92.94c.74,14.79,3.61,29.66,14.42,41.76,9.8,11,23.4,11.24,33.61.67a46.45,46.45,0,0,0,6.54-8.77c5.51-9.37,7.9-19.7,8.35-30.46.66-15.65-1.93-30.59-11.47-43.49-11.84-16-29-15.59-40.33.75C253.14,164.23,250.55,177.46,250.11,192.12Z"/><text class="cls-2" transform="translate(774.32 283.19)">F<tspan class="cls-3" x="201.58" y="0">l</tspan><tspan class="cls-4" x="274.89" y="0">a</tspan><tspan class="cls-5" x="458.42" y="0">s</tspan><tspan class="cls-6" x="623.42" y="0">h</tspan><tspan class="cls-5" x="806.95" y="0">b</tspan><tspan class="cls-4" x="990.48" y="0">a</tspan><tspan class="cls-3" x="1174.01" y="0">c</tspan><tspan x="1339.01" y="0">k</tspan></text><line class="cls-7" x1="0.44" y1="329.43" x2="2282.44" y2="325.43"/><line class="cls-8" x1="0.44" y1="342.43" x2="2282.44" y2="338.43"/><line class="cls-9" x1="0.44" y1="355.43" x2="2282.44" y2="351.43"/><line class="cls-10" x1="0.44" y1="368.43" x2="2282.44" y2="364.43"/><line class="cls-11" x1="0.44" y1="381.43" x2="2282.44" y2="377.43"/></g></g></svg>