<svg xmlns="http://www.w3.org/2000/svg" viewBox="0 0 541.39 120.31"><defs><style>.cls-1{fill:#be1e2d;}.cls-2{fill:#231f20;}</style></defs><title>Asset 2</title><g id="Layer_2" data-name="Layer 2"><g id="Layer_3" data-name="Layer 3"><path class="cls-1" d="M475.34,72.27a27,27,0,0,1-4-7.61,22.75,22.75,0,0,1-.88-10.85A20.58,20.58,0,0,1,476,43a22.08,22.08,0,0,1,3.68-3c.66-.43,1.34-.84,2-1.22s1.31-.63,2-.92a27.06,27.06,0,0,1,3.93-1.27c.69-.17,1.21-.25,1.83-.36s1.22-.19,1.81-.25c1.08-.1,2.26-.17,3.29-.16a35.42,35.42,0,0,1,12,2.16,31.48,31.48,0,0,1,11,6.7c.47.45.93.91,1.39,1.38s.88,1,1.31,1.55a31.4,31.4,0,0,1,2.37,3.3c.68,1.12,1.36,2.3,1.92,3.47s1,2.29,1.45,3.48A43.84,43.84,0,0,1,528.36,71a52.65,52.65,0,0,1-1,11.59h0a49.6,49.6,0,0,1-6.88,11.74,48.33,48.33,0,0,1-3.79,4.29c-1.31,1.27-2.53,2.39-3.74,3.37s-2.31,1.79-3.41,2.49-2,1.29-2.79,1.71c-1.56.84-2.4,1.24-2.4,1.24a13,13,0,0,1-3.7,2.91,36.07,36.07,0,0,1-7.44,3.27,47.33,47.33,0,0,1-9.33,1.88,61.61,61.61,0,0,1-8.9.17,54.71,54.71,0,0,1-14.26-2.84c-.91-.31-1.75-.6-2.48-.88l-1.84-.8-1.58-.72c8.1,2.65,11.49,1.88,11.85,1,.2-.5-.32-1.17-1.27-2s-2.29-1.79-3.83-2.82-3.17-2.32-4.79-3.53-3.12-2.52-4.32-3.7l-1.69-1.59-1.26-1.29-1.13-1.17a60,60,0,0,1-4.93-7,63.68,63.68,0,0,1-3.85-7.43l-.84-2c-.28-.69-.6-1.45-.84-2.16-.47-1.41-.91-2.76-1.25-4.16a53.48,53.48,0,0,1-1.52-8.3,55.39,55.39,0,0,1,.7-16.42,50.62,50.62,0,0,1,2.26-7.91,46,46,0,0,1,3.65-7.42,40.83,40.83,0,0,1,8.38-9.56,47.1,47.1,0,0,1,9.74-6.28,59.63,59.63,0,0,1,19.94-5.52,61.92,61.92,0,0,1,33.13,5.48,50.23,50.23,0,0,1,5.85,3.35c.88.6,1.68,1.26,2.47,1.84a20.41,20.41,0,0,1,2.23,1.81,40.55,40.55,0,0,1,3.66,3.62l1.49,1.69c.48.53.85,1.12,1.24,1.63a46.19,46.19,0,0,1,3.28,5,11.24,11.24,0,0,1,.76,1.37c.15.32.24.48.24.48a52.28,52.28,0,0,1,4.57,11.48,60.86,60.86,0,0,1,2.07,11.93c.2,2,.19,4,.23,5.93s-.12,3.91-.36,5.81a52.28,52.28,0,0,1-2.26,10.91,56.73,56.73,0,0,1-10,18.67,60.48,60.48,0,0,1-7.12,7.35c-1.22,1.16-2.61,2.1-3.9,3.14-.65.5-1.37.92-2,1.39s-1.33,1-2.06,1.33a53.7,53.7,0,0,1-17.36,6.81,52.34,52.34,0,0,1-17.64.37,62.7,62.7,0,0,1-30.58-13.87,70,70,0,0,1-5.86-5.53,66.58,66.58,0,0,1-5-6,62.72,62.72,0,0,1-4-6.42c-.56-1.11-1.15-2.2-1.61-3.34a34.84,34.84,0,0,1-1.42-3.4A62.65,62.65,0,0,1,426,55.77a59.66,59.66,0,0,1,2.69-13,60.64,60.64,0,0,1,5.33-11.43c.54-.88,1.16-1.69,1.72-2.55l.86-1.27c.28-.4.57-.77.88-1.16,1.25-1.56,2.64-3.1,4.06-4.56A70,70,0,0,1,450.65,14a59.29,59.29,0,0,1,19.79-9.45A56.13,56.13,0,0,1,490.17,3a65.3,65.3,0,0,1,17.15,4A80.66,80.66,0,0,1,520.61,14,95,95,0,0,1,536.47,27.2c1.64,1.72,2.84,3.07,3.66,4.06.4.47.71.86.94,1.16l.32.43c-.86-.92-1.68-1.66-2.57-2.47S537,28.76,536,27.93s-2-1.69-3-2.58l-3.34-2.65a89.94,89.94,0,0,0-16.24-10A61.44,61.44,0,0,0,494,7.08a59.55,59.55,0,0,0-9.78-.26,50,50,0,0,0-9.13,1.42,54.7,54.7,0,0,0-24.74,14.33c-2.49,2.43-4.19,4.44-5.18,5.57s-1.3,1.43-.86.6c1.9-3.27,1.29-4.07-.07-4a9.43,9.43,0,0,0-3.15,1c-.66,1-1.31,2-1.87,3l-.39.7-.39.79-.8,1.55c-.26.52-.55,1-.8,1.54l-.68,1.6a31.85,31.85,0,0,0-1.28,3.2,55.6,55.6,0,0,0-3.11,13.19A62.27,62.27,0,0,0,434.08,76a57.41,57.41,0,0,0,3.77,9.24,51,51,0,0,0,4,6.52c.64.88,1.21,1.66,1.77,2.32s1,1.23,1.4,1.68c.76.91,1.22,1.38,1.22,1.38a85.94,85.94,0,0,0-8.15-6.25,25.86,25.86,0,0,0-2.44-1.51c-.57-.33-.9-.48-.9-.48a56,56,0,0,0,13.79,12.8,58.06,58.06,0,0,0,13.83,6.69c2.17.69,4.24,1.21,6.18,1.62a50.74,50.74,0,0,0,5.52.78,44.66,44.66,0,0,0,19.1-2.35c2.08-.72,3-1.13,3-1.13-2.26,1.8-2.12,2.42-1.26,2.57a5.73,5.73,0,0,0,1.49,0,6.72,6.72,0,0,0,.85-.18,46.28,46.28,0,0,0,14.35-11.26,12.47,12.47,0,0,0,1.16-1.4c.36-.46.72-.9,1.07-1.33l1.79-2.54c.5-.84,1-1.59,1.45-2.3s.77-1.42,1.14-2,.6-1.24.89-1.77.57-1,.74-1.5c.38-.93.78-1.65,1-2.22a12.93,12.93,0,0,1,.72-1.66A56.57,56.57,0,0,1,519,93.9c-.48,1.74-1.15,3.18-1.6,4.59s-1,2.55-1.45,3.57-.81,1.91-1.09,2.68-.57,1.34-.74,1.82a10.65,10.65,0,0,0-.44,1.45c.73-1.18,1.63-2.28,2.38-3.63.4-.64.8-1.3,1.21-2s.76-1.4,1.14-2.13a51.65,51.65,0,0,0,3.8-9.36,46.24,46.24,0,0,0,1.69-9.9c0-.82,0-1.62.07-2.41s-.11-1.58-.13-2.34a40.53,40.53,0,0,0-.59-4.62A50.25,50.25,0,0,0,521,63.13,38.65,38.65,0,0,0,518,57l-.65-1.12-.66-.9a12.57,12.57,0,0,0-1-1.39c-.61-.69-.9-1.07-.9-1.07a40,40,0,0,1,5.2-.29,39.91,39.91,0,0,0-4.56-5.83c-.38-.36-.78-.67-1.14-1l-.52-.53-.57-.41c-.37-.28-.72-.56-1.05-.86s-.75-.45-1.09-.69A16.15,16.15,0,0,0,509,41.66a6.25,6.25,0,0,0-1-.55,9.64,9.64,0,0,0-1-.48,31,31,0,0,0-4.08-1.46,49,49,0,0,0-6.4-1.35c-.77-.09-1.36-.2-1.76-.23l-.6-.08A51.21,51.21,0,0,1,506,37.18a33,33,0,0,1,4.75.77c.71.19,1.42.35,2.12.5s1.28.45,1.91.65a10.28,10.28,0,0,1,1.75.68l1.6.67c.94.53,1.8,1,2.53,1.32,1.33.89,2.15,1.35,2.15,1.35-.84-.72-1.58-1.77-2.5-2.62-.43-.45-.82-1-1.25-1.4s-.87-.84-1.26-1.25l-.56-.61c-.18-.2-.39-.34-.56-.5-.37-.32-.69-.61-.95-.86a11.26,11.26,0,0,0-.85-.81c.77,0,3.12.76,6,2.68A33.19,33.19,0,0,1,529.6,47a47.38,47.38,0,0,1,5.56,12.27c.32.88.48,1.73.68,2.47s.35,1.39.48,1.92l.31,1.69,0-.87c0-.29,0-.65,0-1.08s-.07-.91-.11-1.46-.09-1.17-.15-1.85-.23-1.4-.36-2.19a42.08,42.08,0,0,0-1.27-5.3,37.76,37.76,0,0,0-6.66-12.41A28.68,28.68,0,0,0,514.42,31c-11.2-3.49-23.62-1.87-31.47,1a50.79,50.79,0,0,0-5.15,2.14c-1.42.73-2.61,1.38-3.51,2-.48.27-.83.56-1.18.77a8.18,8.18,0,0,0-.82.59l-.67.47c-1.4.65-1.58-.66-1-2.25a11.39,11.39,0,0,1,1.07-2.28,10.74,10.74,0,0,1,.72-1.07L469.1,35c-1,.9-2,1.74-2.89,2.56a36.06,36.06,0,0,0-3.76,4c-.44.64-.75,1-.75,1a36.52,36.52,0,0,0-.14,8.6,35,35,0,0,0,1.92,8.43c.45,1.19,1,2.38,1.36,3.16s1,1.82,1.48,2.53.85,1.29,1.14,1.66l.41.59a23.91,23.91,0,0,1-5.95-4.88,25.2,25.2,0,0,1-4.33-7.64A27.35,27.35,0,0,1,456,46.45a23.55,23.55,0,0,1,.93-7.28,23.15,23.15,0,0,1,1.87-4.37,11,11,0,0,1,.69-1.17l.26-.4a45.55,45.55,0,0,0-4,5.44c-.28.53-.56,1-.81,1.43l-.57,1.15A7.14,7.14,0,0,0,454,42l-.12.27a15.45,15.45,0,0,1,.44-4.22,23.89,23.89,0,0,1,4.19-8.44,35.13,35.13,0,0,1,7.64-7.29A46.1,46.1,0,0,1,473.64,18c1-.45,1.82-.81,2.39-1l.89-.34a40.76,40.76,0,0,0-14.44,6,32.92,32.92,0,0,0-12,13.71,34.42,34.42,0,0,0-1.64,21.36,36.49,36.49,0,0,0,8.75,16.74,35.57,35.57,0,0,0,10.59,8.13A27.25,27.25,0,0,0,471.68,84l1.24.39c.83.49.77.78.14,1a9.7,9.7,0,0,1-3.08.18c-.65-.06-1.31-.19-2-.3l-1-.18-.86-.24c-1.08-.32-1.85-.57-1.85-.57A29.64,29.64,0,0,0,478,90.42a30.84,30.84,0,0,0,7.74.45A22.63,22.63,0,0,0,501,83.69a27.35,27.35,0,0,0,4.57-6.38A27.8,27.8,0,0,0,508,70.77a22.43,22.43,0,0,0,.55-5.83,16.92,16.92,0,0,0-.64-4.09,8.88,8.88,0,0,0-.33-1.11l-.16-.38a19.27,19.27,0,0,1,2.08,10.49,28.21,28.21,0,0,0,.27-3.33,23.1,23.1,0,0,0-.24-3.41,20.52,20.52,0,0,0-.79-3.41,17.85,17.85,0,0,0-1.51-3.22,15.36,15.36,0,0,0-2-2.77A21.09,21.09,0,0,0,503,51.62a22.88,22.88,0,0,0-4.38-2.86,21.79,21.79,0,0,0-4.19-1.62,18.67,18.67,0,0,0-3.78-.57c-.57,0-1.08,0-1.54,0s-.88.09-1.21.13a8.13,8.13,0,0,0-1,.18s-.48.11-1.31.36A13.74,13.74,0,0,0,482.16,49a13.68,13.68,0,0,0-3.77,4,18,18,0,0,0-2.12,5.06C474.55,64.82,476.33,70.75,475.34,72.27Z" transform="translate(0 -2.74)"/><path class="cls-1" d="M17.93,14.81v92.75H0V14.81Z" transform="translate(0 -2.74)"/><path class="cls-1" d="M54.51,14.81l55.1,64.73V14.81h17.53v92.75h-15.4L56.3,41.76v65.8H38.77V14.81Z" transform="translate(0 -2.74)"/><path class="cls-2" d="M195.66,14.81v6H155.09V56h36.58v6H155.09v45.55h-7.17V14.81Z" transform="translate(0 -2.74)"/><path class="cls-2" d="M276,14.81h7.17V65.4q0,20.77-10.82,32.07t-28,11.28q-17.13,0-27.95-11.15T205.55,67.06V14.81h7.24v52q0,16.6,8.79,26t22.74,9.36q14.09,0,22.87-9.46T276,65.8Z" transform="translate(0 -2.74)"/><path class="cls-2" d="M346.17,19.45v7.91q-12.09-7.11-20.78-7.11a20,20,0,0,0-14,5.08,16.3,16.3,0,0,0-5.61,12.58,15.48,15.48,0,0,0,3.32,9.69q3.31,4.32,13.88,8.3a131.74,131.74,0,0,1,15.4,6.64,23.46,23.46,0,0,1,8.23,7.7Q350,75.3,350,83.32a23.83,23.83,0,0,1-7.83,18.06,26.87,26.87,0,0,1-19.13,7.37q-11.55,0-23.76-8.1V92.22q13.47,9.9,23.37,9.89a19.53,19.53,0,0,0,13.9-5.34A17.94,17.94,0,0,0,338.73,73q-3.51-4.75-14.27-8.88a140.26,140.26,0,0,1-15.36-6.65,22.57,22.57,0,0,1-7.84-7.2q-3.22-4.68-3.23-12a22.82,22.82,0,0,1,7.84-17.42,26.88,26.88,0,0,1,18.85-7.2A44.14,44.14,0,0,1,346.17,19.45Z" transform="translate(0 -2.74)"/><path class="cls-2" d="M417.08,14.81v6H373.65V57.9H416v6h-42.3v37.64h44.49v6H366.48V14.81Z" transform="translate(0 -2.74)"/></g></g></svg>