<svg xmlns="http://www.w3.org/2000/svg" viewBox="0 0 306.2 324.01"><defs><style>.cls-1{fill:#1a1a1a;}.cls-2{fill:#ff0;}.cls-3{fill:#ff7bac;}</style></defs><title>Asset 3</title><g id="Layer_2" data-name="Layer 2"><g id="Layer_6" data-name="Layer 6"><g id="LPPzwh.tif"><path class="cls-1" d="M186.66,0a120.14,120.14,0,0,1,25.9,15.84c2.35,1.91,4.47,4.1,6.82,6a3.08,3.08,0,0,0,2.41.58,50.1,50.1,0,0,1,27.86-.72,3.66,3.66,0,0,0,2.83-1A116.19,116.19,0,0,1,281.35,1.3,28.55,28.55,0,0,1,285,.16c-.39,4-.72,7.53-1.1,11.07-1.2,11.1-2.43,22.2-3.61,33.3a5.09,5.09,0,0,0,.33,2.54A46.22,46.22,0,0,1,285,68.18a5.64,5.64,0,0,0,.18.88,37.26,37.26,0,0,1,21,8.68,45.32,45.32,0,0,0-18.46-7.27l8.68,4.62-.15.27-11.14-4.74c-.66,3.16-1.07,5.83-1.78,8.43a43.83,43.83,0,0,1-9.57,17.74,4.7,4.7,0,0,0-1.29,4.06,152.15,152.15,0,0,1,.13,33A186.42,186.42,0,0,1,255,195.59a84.87,84.87,0,0,1-4,7.62,10.05,10.05,0,0,0-1.4,6.11c.81,16.9,1.51,33.81,2.23,50.72.5,11.49,1,23,1.42,34.46.05,1.49.68,1.86,2,2,7.48.91,12.45,6.51,12.44,13.91s-4.67,12.63-12.49,13.41a77.6,77.6,0,0,1-10,0,7.13,7.13,0,0,1-6.28-4.09c-5.53-9.89-11.12-19.73-16.69-29.58-1.26-2.22-2.56-4.4-4.08-7a55.66,55.66,0,0,1-13.84,22.09c4.29,0,8-.12,11.7,0a36.73,36.73,0,0,1,7.56,1c3.72,1,5.56,3.23,5.8,6.44.36,4.81-1.05,8-4.75,9.52a18.2,18.2,0,0,1-6.69,1.55q-61.44.22-122.89.21c-18.2,0-34.66-5.8-49.47-16.16C21.07,290.61,6.54,267.11,1.75,237.55c-3.5-21.58-2-42.62,6.87-62.82,4.23-9.63,9.53-18.6,17.09-26.07A52,52,0,0,1,61.3,133.25a73.3,73.3,0,0,1,16.41,1c8,1.5,11.78,6.94,11,14.31-.59,5.58-3.75,8.76-9.37,8.87a34.41,34.41,0,0,1-8.75-1c-14.4-3.53-25.57,1.67-34.31,12.81-7.85,10-11.92,21.81-13.7,34.27-2.78,19.46-.32,38.29,9,55.74,9.84,18.39,24.3,31.83,44.22,38.92.88.32,1.8.56,3.11,1v-3c0-16.69-.27-33.39.13-50.07.59-24.63,4.88-48.57,15.73-70.91,17.07-35.17,44.59-57.83,82.53-67.48a18.34,18.34,0,0,0,10.26-6.15c2.66-3.18,5.6-6.13,8.4-9.19a2.42,2.42,0,0,0,.26-.57,47.85,47.85,0,0,1-7.21-20l-7.22,3.35-.2-.39,6.7-3.64-.16-.53c-2.82.88-5.73,1.58-8.45,2.7s-5.33,2.68-8,4a34.3,34.3,0,0,1,15-7.19c1.69-.36,2-1,2.15-2.63.62-5.61,1.59-11.18,2.38-16.77a17.88,17.88,0,0,0,.32-4.24c-1.31-12.77-2.7-25.54-4.07-38.31C187.19,5.52,187,3,186.66,0ZM217.2,65.69a28.66,28.66,0,0,0,4.06-1.11,5.76,5.76,0,0,0,3.94-5.2,5.24,5.24,0,0,0-3.47-5.47,18.16,18.16,0,0,0-7.36-1,6.41,6.41,0,0,0-6,5.83c-.12,2.83,2,5.35,5.45,6.37C214.82,65.35,215.85,65.44,217.2,65.69ZM258,52.57c-4.76,0-8.37,2.67-8.42,6.29s3.61,6.54,8.21,6.65c4.85.11,8.61-2.62,8.66-6.31S262.78,52.59,258,52.57ZM237.57,78.1l1,0c1-1.66,2.05-3.3,3-5a1.59,1.59,0,0,0-1.12-2.56,14,14,0,0,0-4.87.08,2.6,2.6,0,0,0-1,2.3A47,47,0,0,0,237.57,78.1Z"/><path class="cls-2" d="M217.2,65.69c-1.35-.25-2.38-.34-3.36-.63-3.46-1-5.57-3.54-5.45-6.37a6.41,6.41,0,0,1,6-5.83,18.16,18.16,0,0,1,7.36,1,5.24,5.24,0,0,1,3.47,5.47,5.76,5.76,0,0,1-3.94,5.2A28.66,28.66,0,0,1,217.2,65.69Zm-3-6.59,2.48,4.23c.67-1.4,1.73-2.74,1.92-4.2s.41-4-1.85-4.17C216.13,54.9,215.22,57.42,214.23,59.1Z"/><path class="cls-2" d="M258,52.57c4.75,0,8.5,3,8.45,6.63s-3.81,6.42-8.66,6.31c-4.6-.11-8.26-3.07-8.21-6.65S253.27,52.54,258,52.57Zm2.72,6.31-2.69-4.12c-.63,1.34-1.59,2.63-1.81,4-.26,1.64-.39,3.91,1.72,4.29C258.58,63.19,259.66,60.59,260.75,58.88Z"/><path class="cls-3" d="M237.57,78.1a47,47,0,0,1-3-5.21,2.6,2.6,0,0,1,1-2.3,14,14,0,0,1,4.87-.08,1.59,1.59,0,0,1,1.12,2.56c-.93,1.7-2,3.34-3,5Z"/><path d="M214.23,59.1c1-1.68,1.9-4.2,2.55-4.14,2.26.22,2.05,2.59,1.85,4.17s-1.25,2.8-1.92,4.2Z"/><path d="M260.75,58.88c-1.09,1.71-2.17,4.31-2.78,4.21-2.11-.38-2-2.65-1.72-4.29.22-1.41,1.18-2.7,1.81-4Z"/></g></g></g></svg>